<svg width="29" height="29" viewBox="0 0 29 29" fill="none" xmlns="http://www.w3.org/2000/svg">
<path d="M2.84655 22.6862C1.87024 23.6625 1.87024 25.2454 2.84655 26.2217C3.82286 27.198 5.40578 27.198 6.38209 26.2217L2.84655 22.6862ZM28.2991 3.26915C28.2991 1.88844 27.1798 0.76915 25.7991 0.76915H3.29911C1.9184 0.76915 0.799112 1.88844 0.799112 3.26915C0.799112 4.64986 1.9184 5.76915 3.29911 5.76915H23.2991V25.7691C23.2991 27.1499 24.4184 28.2691 25.7991 28.2691C27.1798 28.2691 28.2991 27.1499 28.2991 25.7691V3.26915ZM6.38209 26.2217L27.5669 5.03692L24.0313 1.50138L2.84655 22.6862L6.38209 26.2217Z" fill="#E6DED3"/>
</svg>
